<?xml version="1.0" encoding="UTF-8" standalone="no"?>
<!-- Created with Inkscape (http://www.inkscape.org/) -->

<svg
   xmlns:dc="http://purl.org/dc/elements/1.1/"
   xmlns:cc="http://creativecommons.org/ns#"
   xmlns:rdf="http://www.w3.org/1999/02/22-rdf-syntax-ns#"
   xmlns:svg="http://www.w3.org/2000/svg"
   xmlns="http://www.w3.org/2000/svg"
   xmlns:sodipodi="http://sodipodi.sourceforge.net/DTD/sodipodi-0.dtd"
   xmlns:inkscape="http://www.inkscape.org/namespaces/inkscape"
   width="68"
   height="76"
   id="svg3885"
   version="1.1"
   inkscape:version="0.48.5 r10040"
   sodipodi:docname="Maximize.svg"
   inkscape:export-filename="/home/mike/Work/ludumdare/compo/themes/ludum/ld2014/Maximize.png"
   inkscape:export-xdpi="90"
   inkscape:export-ydpi="90">
  <defs
     id="defs3887" />
  <sodipodi:namedview
     id="base"
     pagecolor="#ffffff"
     bordercolor="#666666"
     borderopacity="1.0"
     inkscape:pageopacity="0.0"
     inkscape:pageshadow="2"
     inkscape:zoom="3.959798"
     inkscape:cx="121.64122"
     inkscape:cy="21.783911"
     inkscape:document-units="px"
     inkscape:current-layer="layer1"
     showgrid="false"
     inkscape:window-width="1317"
     inkscape:window-height="744"
     inkscape:window-x="49"
     inkscape:window-y="24"
     inkscape:window-maximized="1" />
  <metadata
     id="metadata3890">
    <rdf:RDF>
      <cc:Work
         rdf:about="">
        <dc:format>image/svg+xml</dc:format>
        <dc:type
           rdf:resource="http://purl.org/dc/dcmitype/StillImage" />
        <dc:title></dc:title>
      </cc:Work>
    </rdf:RDF>
  </metadata>
  <g
     inkscape:label="Layer 1"
     inkscape:groupmode="layer"
     id="layer1"
     transform="translate(0,-976.3622)">
    <path
       style="color:#000000;fill:#002380;fill-opacity:1;fill-rule:nonzero;stroke:none;stroke-width:6;marker:none;visibility:visible;display:inline;overflow:visible;enable-background:accumulate"
       d="m 10,986.3622 c -4.432,0 -8,3.568 -8,8 l 0,48 c 0,4.432 3.568,8 8,8 l 48,0 c 4.432,0 8,-3.568 8,-8 l 0,-48 c 0,-4.432 -3.568,-8 -8,-8 z"
       id="rect3906-8-4-0-9-9"
       inkscape:connector-curvature="0"
       sodipodi:nodetypes="sssssssss" />
    <rect
       style="fill:#bce1ee;fill-opacity:1;stroke:none"
       id="rect3141"
       width="56"
       height="56"
       x="5.9999995"
       y="982.36218" />
    <path
       style="color:#000000;fill:#2374dc;fill-opacity:1;fill-rule:nonzero;stroke:none;stroke-width:6;marker:none;visibility:visible;display:inline;overflow:visible;enable-background:accumulate"
       d="m 10,978.36218 c -4.432,0 -8,3.568 -8,8 l 0,48.00002 c 0,4.432 3.568,8 8,8 l 48,0 c 4.432,0 8,-3.568 8,-8 l 0,-48.00002 c 0,-4.432 -3.568,-8 -8,-8 l -48,0 z m 1.6875,7 c 0.10407,-0.005 0.20843,-0.005 0.3125,0 l 16,0 c 1.18008,-0.003 2.32927,0.75366 2.78125,1.84375 0.45199,1.09009 0.17945,2.44807 -0.65625,3.28125 l -3.875,3.875 7.75,7.75002 7.75,-7.75002 -3.875,-3.875 c -0.8357,-0.83318 -1.10824,-2.19116 -0.65625,-3.28125 0.45198,-1.09009 1.60117,-1.84675 2.78125,-1.84375 l 16,0 c 1.57075,1.6e-4 2.99984,1.42925 3,3 l 0,16.00002 c 0.003,1.1801 -0.75367,2.3292 -1.84375,2.7812 -1.09008,0.4519 -2.44806,0.1795 -3.28125,-0.6562 l -3.875,-3.875 -7.75,7.75 7.75,7.75 3.875,-3.875 c 0.83319,-0.8357 2.19117,-1.1082 3.28125,-0.6563 1.09008,0.452 1.84675,1.6012 1.84375,2.7813 l 0,16 c -1.6e-4,1.5708 -1.42925,2.9998 -3,3 l -16,0 c -1.18007,0 -2.32927,-0.7538 -2.78125,-1.8438 -0.45199,-1.0901 -0.17944,-2.448 0.65625,-3.2812 l 3.875,-3.875 -7.75,-7.75 -7.75,7.75 3.875,3.875 c 0.83569,0.8332 1.10824,2.1911 0.65625,3.2812 -0.45198,1.09 -1.60118,1.8438 -2.78125,1.8438 l -16,0 c -1.57075,-2e-4 -2.99984,-1.4292 -3,-3 l 0,-16 c -0.003,-1.1801 0.75367,-2.3293 1.84375,-2.7813 1.09008,-0.4519 2.44806,-0.1794 3.28125,0.6563 l 3.875,3.875 7.75,-7.75 -7.75,-7.75 -3.875,3.875 c -0.83319,0.8357 -2.19117,1.1081 -3.28125,0.6562 C 9.75367,1006.6914 8.997,1005.5423 9,1004.3622 l 0,-16.00002 c -0.008,-1.47184 1.22366,-2.84657 2.6875,-3 z"
       id="rect3906-5"
       inkscape:connector-curvature="0" />
  </g>
</svg>
