<?xml version="1.0" encoding="UTF-8" standalone="no"?>
<!-- Created with Inkscape (http://www.inkscape.org/) -->

<svg
   xmlns:dc="http://purl.org/dc/elements/1.1/"
   xmlns:cc="http://creativecommons.org/ns#"
   xmlns:rdf="http://www.w3.org/1999/02/22-rdf-syntax-ns#"
   xmlns:svg="http://www.w3.org/2000/svg"
   xmlns="http://www.w3.org/2000/svg"
   xmlns:sodipodi="http://sodipodi.sourceforge.net/DTD/sodipodi-0.dtd"
   xmlns:inkscape="http://www.inkscape.org/namespaces/inkscape"
   width="128"
   height="128"
   id="svg4330"
   version="1.1"
   inkscape:version="0.48.4 r9939"
   inkscape:export-filename="/home/mike/Work/LudumDare/compo/plugins/compo2/art/pause.png"
   inkscape:export-xdpi="180"
   inkscape:export-ydpi="180"
   sodipodi:docname="New document 14">
  <defs
     id="defs4332">
    <filter
       inkscape:collect="always"
       id="filter4875">
      <feGaussianBlur
         inkscape:collect="always"
         stdDeviation="2.5600004"
         id="feGaussianBlur4877" />
    </filter>
  </defs>
  <sodipodi:namedview
     id="base"
     pagecolor="#ffffff"
     bordercolor="#666666"
     borderopacity="1.0"
     inkscape:pageopacity="0.0"
     inkscape:pageshadow="2"
     inkscape:zoom="2.8"
     inkscape:cx="101.62492"
     inkscape:cy="51.749073"
     inkscape:document-units="px"
     inkscape:current-layer="layer1"
     showgrid="false"
     inkscape:window-width="1317"
     inkscape:window-height="744"
     inkscape:window-x="49"
     inkscape:window-y="24"
     inkscape:window-maximized="1" />
  <metadata
     id="metadata4335">
    <rdf:RDF>
      <cc:Work
         rdf:about="">
        <dc:format>image/svg+xml</dc:format>
        <dc:type
           rdf:resource="http://purl.org/dc/dcmitype/StillImage" />
        <dc:title></dc:title>
      </cc:Work>
    </rdf:RDF>
  </metadata>
  <g
     inkscape:label="Layer 1"
     inkscape:groupmode="layer"
     id="layer1"
     transform="translate(0,-924.36218)">
    <path
       style="opacity:0.3;color:#000000;fill:#000000;fill-opacity:1;fill-rule:nonzero;stroke:none;stroke-width:4;marker:none;visibility:visible;display:inline;overflow:visible;filter:url(#filter4875);enable-background:accumulate"
       d="m 64,958.36218 c -17.67311,0 -32,14.3269 -32,32 0,17.67312 14.32689,32.00002 32,32.00002 17.67311,0 32,-14.3269 32,-32.00002 0,-17.6731 -14.32689,-32 -32,-32 z m -14.3125,17 c 0.10407,-0.01 0.20843,-0.01 0.3125,0 l 6,0 c 1.57075,2e-4 2.99984,1.4292 3,3 l 0,24.00002 c -1.6e-4,1.5708 -1.42925,2.9998 -3,3 l -6,0 c -1.57075,-2e-4 -2.99984,-1.4292 -3,-3 l 0,-24.00002 c -0.008,-1.4718 1.22366,-2.8466 2.6875,-3 z m 22,0 c 0.10407,-0.01 0.20843,-0.01 0.3125,0 l 6,0 c 1.57075,2e-4 2.99984,1.4292 3,3 l 0,24.00002 c -1.6e-4,1.5708 -1.42925,2.9998 -3,3 l -6,0 c -1.57075,-2e-4 -2.99984,-1.4292 -3,-3 l 0,-24.00002 c -0.008,-1.4718 1.22366,-2.8466 2.6875,-3 z"
       id="path2987-3"
       inkscape:connector-curvature="0"
       sodipodi:nodetypes="ssssscccccccccccccccccccc" />
    <path
       style="color:#000000;fill:#ffffff;fill-opacity:1;fill-rule:nonzero;stroke:none;stroke-width:4;marker:none;visibility:visible;display:inline;overflow:visible;enable-background:accumulate"
       d="m 64,956.36218 c -17.67311,0 -32,14.3269 -32,32 0,17.67312 14.32689,32.00002 32,32.00002 17.67311,0 32,-14.3269 32,-32.00002 0,-17.6731 -14.32689,-32 -32,-32 z m -14.3125,17 c 0.10407,-0.01 0.20843,-0.01 0.3125,0 l 6,0 c 1.57075,2e-4 2.99984,1.4292 3,3 l 0,24.00002 c -1.6e-4,1.5708 -1.42925,2.9998 -3,3 l -6,0 c -1.57075,-2e-4 -2.99984,-1.4292 -3,-3 l 0,-24.00002 c -0.008,-1.4718 1.22366,-2.8466 2.6875,-3 z m 22,0 c 0.10407,-0.01 0.20843,-0.01 0.3125,0 l 6,0 c 1.57075,2e-4 2.99984,1.4292 3,3 l 0,24.00002 c -1.6e-4,1.5708 -1.42925,2.9998 -3,3 l -6,0 c -1.57075,-2e-4 -2.99984,-1.4292 -3,-3 l 0,-24.00002 c -0.008,-1.4718 1.22366,-2.8466 2.6875,-3 z"
       id="path2987-3-4"
       inkscape:connector-curvature="0"
       sodipodi:nodetypes="ssssscccccccccccccccccccc" />
  </g>
</svg>
