<?xml version="1.0" encoding="UTF-8" standalone="no"?>
<!-- Created with Inkscape (http://www.inkscape.org/) -->

<svg
   xmlns:dc="http://purl.org/dc/elements/1.1/"
   xmlns:cc="http://creativecommons.org/ns#"
   xmlns:rdf="http://www.w3.org/1999/02/22-rdf-syntax-ns#"
   xmlns:svg="http://www.w3.org/2000/svg"
   xmlns="http://www.w3.org/2000/svg"
   xmlns:sodipodi="http://sodipodi.sourceforge.net/DTD/sodipodi-0.dtd"
   xmlns:inkscape="http://www.inkscape.org/namespaces/inkscape"
   width="68"
   height="76"
   id="svg3936"
   version="1.1"
   inkscape:version="0.48.5 r10040"
   sodipodi:docname="Power.svg"
   inkscape:export-filename="/home/mike/Work/ludumdare/compo/themes/ludum/ld2014/Power.png"
   inkscape:export-xdpi="90"
   inkscape:export-ydpi="90">
  <defs
     id="defs3938" />
  <sodipodi:namedview
     id="base"
     pagecolor="#ffffff"
     bordercolor="#666666"
     borderopacity="1.0"
     inkscape:pageopacity="0.0"
     inkscape:pageshadow="2"
     inkscape:zoom="1"
     inkscape:cx="158.03999"
     inkscape:cy="23.43514"
     inkscape:document-units="px"
     inkscape:current-layer="layer1"
     showgrid="false"
     inkscape:window-width="1317"
     inkscape:window-height="744"
     inkscape:window-x="49"
     inkscape:window-y="24"
     inkscape:window-maximized="1" />
  <metadata
     id="metadata3941">
    <rdf:RDF>
      <cc:Work
         rdf:about="">
        <dc:format>image/svg+xml</dc:format>
        <dc:type
           rdf:resource="http://purl.org/dc/dcmitype/StillImage" />
        <dc:title></dc:title>
      </cc:Work>
    </rdf:RDF>
  </metadata>
  <g
     inkscape:label="Layer 1"
     inkscape:groupmode="layer"
     id="layer1"
     transform="translate(0,-976.36218)">
    <path
       style="color:#000000;fill:#002380;fill-opacity:1;fill-rule:nonzero;stroke:none;stroke-width:6;marker:none;visibility:visible;display:inline;overflow:visible;enable-background:accumulate"
       d="m 9.99999,986.36216 c -4.43199,0 -7.99999,3.568 -7.99999,8 l 0,48.00004 c 0,4.432 3.568,8 7.99999,8 l 48,0 c 4.432,0 8,-3.568 8,-8 l 0,-48.00004 c 0,-4.432 -3.568,-8 -8,-8 z"
       id="rect3906-8-4-0-9-9-2"
       inkscape:connector-curvature="0"
       sodipodi:nodetypes="sssssssss" />
    <path
       style="fill:#bce1ee;fill-opacity:1;stroke:none"
       d="m 6,982.36216 27.99999,-4 28,4 4,28.00004 -4,28 -28,4 -27.99999,-4 -4,-28 z"
       id="rect3141-1"
       inkscape:connector-curvature="0"
       sodipodi:nodetypes="ccccccccc" />
    <path
       style="color:#000000;fill:#2374dc;fill-opacity:1;fill-rule:nonzero;stroke:none;stroke-width:6;marker:none;visibility:visible;display:inline;overflow:visible;enable-background:accumulate"
       d="m 9.99999,978.36214 c -4.43199,0 -7.99999,3.568 -7.99999,8 l 0,48.00006 c 0,4.432 3.568,8 7.99999,8 l 48,0 c 4.432,0 8,-3.568 8,-8 l 0,-48.00006 c 0,-4.432 -3.568,-8 -8,-8 l -48,0 z m 23.9375,3.90625 a 5.0005,5.0005 0 0 1 5.0625,5.09375 l 0,23.00006 a 5.0005,5.0005 0 1 1 -10,0 l 0,-23.00006 a 5.0005,5.0005 0 0 1 4.9375,-5.09375 z m 13,3.625 a 5.0005,5.0005 0 0 1 2.8125,0.90625 c 1.54464,1.03394 2.97275,2.19163 4.28125,3.5 1.30881,1.3087 2.49703,2.7677 3.53125,4.3125 1.02624,1.5328 1.90889,3.17935 2.625,4.90624 0.70389,1.69762 1.22895,3.46802 1.59375,5.31252 0.3539,1.7895 0.5625,3.6467 0.5625,5.5313 0,1.8845 -0.20863,3.7106 -0.5625,5.5 -0.36476,1.8444 -0.88993,3.6462 -1.59375,5.3437 -0.7159,1.7265 -1.59911,3.3424 -2.625,4.875 -1.03383,1.5443 -2.22277,3.0039 -3.53125,4.3125 -1.30858,1.3087 -2.73626,2.4658 -4.28125,3.5 -1.53292,1.0264 -3.17948,1.909 -4.90625,2.625 -1.69735,0.7039 -3.46768,1.2603 -5.3125,1.625 -1.78949,0.354 -3.64664,0.5313 -5.53125,0.5313 -1.88431,0 -3.74163,-0.1773 -5.53125,-0.5313 -1.84453,-0.3647 -3.61503,-0.9211 -5.3125,-1.625 -1.72659,-0.7158 -3.37364,-1.599 -4.90625,-2.625 -1.54432,-1.0338 -2.97264,-2.1915 -4.28125,-3.5 -1.30881,-1.3086 -2.49703,-2.7677 -3.53125,-4.3125 -1.02618,-1.5328 -1.9089,-3.1481 -2.62499,-4.875 -0.704,-1.6976 -1.229,-3.4992 -1.5938,-5.3437 -0.3539,-1.7895 -0.5625,-3.6154 -0.5625,-5.5 0,-1.8844 0.2087,-3.7419 0.5625,-5.5313 0.3648,-1.8445 0.89,-3.6151 1.5938,-5.31252 0.71594,-1.72669 1.59917,-3.37374 2.62499,-4.90624 1.03395,-1.5446 2.22288,-2.97285 3.53125,-4.28125 1.30878,-1.30906 2.73658,-2.49708 4.28125,-3.53125 a 5.0009765,5.0009765 0 1 1 5.5625,8.3125 c -1.00049,0.6698 -1.93221,1.43215 -2.78125,2.28125 -0.84903,0.84919 -1.61172,1.78109 -2.28125,2.78131 -0.66438,0.9925 -1.22561,2.0421 -1.6875,3.1562 -0.45412,1.0952 -0.82703,2.2468 -1.0625,3.4375 -0.22847,1.1554 -0.34375,2.3626 -0.34375,3.5938 0,1.2312 0.11526,2.4072 0.34375,3.5625 0.23552,1.1909 0.6084,2.3424 1.0625,3.4375 0.46202,1.1142 1.02296,2.1636 1.6875,3.1562 0.66972,1.0004 1.43202,1.9322 2.28125,2.7813 0.84901,0.8489 1.78081,1.6428 2.78125,2.3125 0.99235,0.6643 2.04216,1.2256 3.15625,1.6875 l 0.0312,0 c 1.09511,0.4541 2.2156,0.7957 3.40625,1.0312 1.15504,0.2284 2.3625,0.3438 3.59375,0.3438 1.23115,0 2.4384,-0.1154 3.59375,-0.3438 1.19056,-0.2355 2.34213,-0.577 3.4375,-1.0312 1.11439,-0.4621 2.16379,-1.023 3.15625,-1.6875 1.00017,-0.6695 1.93201,-1.4632 2.78125,-2.3125 0.84892,-0.849 1.6116,-1.781 2.28125,-2.7813 0.66431,-0.9924 1.22556,-2.0421 1.6875,-3.1562 0.45408,-1.0951 0.827,-2.2467 1.0625,-3.4375 0.22845,-1.1552 0.34375,-2.3314 0.34375,-3.5625 0,-1.2312 -0.11525,-2.4383 -0.34375,-3.5938 -0.23552,-1.1907 -0.60835,-2.3423 -1.0625,-3.4375 -0.46201,-1.1143 -1.02304,-2.1638 -1.6875,-3.1562 -0.66972,-1.00042 -1.43202,-1.93212 -2.28125,-2.78131 -0.84912,-0.849 -1.78113,-1.61175 -2.78125,-2.28125 a 5.0005,5.0005 0 0 1 2.75,-9.21875 z"
       id="rect3906-74-44"
       inkscape:connector-curvature="0" />
  </g>
</svg>
