<!-- Created with Inkscape (http://www.inkscape.org/) -->
<svg xmlns:rdf="http://www.w3.org/1999/02/22-rdf-syntax-ns#" xmlns="http://www.w3.org/2000/svg" height="240" width="320" version="1.1" xmlns:cc="http://creativecommons.org/ns#" xmlns:dc="http://purl.org/dc/elements/1.1/">
<defs></defs>
<metadata>
<rdf:RDF>
<cc:Work rdf:about="">
<dc:format>image/svg+xml</dc:format>
<dc:type rdf:resource="http://purl.org/dc/dcmitype/StillImage"/>
<dc:title/>
</cc:Work>
</rdf:RDF>
</metadata>
<g fill="#000" transform="translate(110,-812.36218)">
<path style="color:#000000;enable-background:accumulate;" d="m-110,812.3622,0,240,320,0,0-240zm295,25c25,40,25,150,0,190-40,25-230,25-270,0-25-40.00004-25-160,0-190,40-25,230-25,270,0z" fill-rule="nonzero" fill="#000"/>
</g>
<g fill="#445" transform="translate(0,-812.36218)">
<path style="color:#000000;enable-background:accumulate;" d="m-10-10,0,260,340,0,0-260zm310,30c20,40,20,160,0,200-380,20-580,20-620,0-20-40-20-170,0-200,40-20,240-20,280,0z" fill-rule="nonzero" transform="translate(0,812.36218)" fill="#445"/>
</g>
</svg>
