<svg xmlns="http://www.w3.org/2000/svg" height="240" width="320"><defs><linearGradient><stop offset="0" stop-opacity="0"/><stop offset=".897"/><stop offset="1" stop-opacity="0"/></linearGradient></defs><path d="M0 0v240h320V0zm185 837.362c25 40 25 150 0 190-40 25-230 25-270 0-25-40-25-160 0-190 40-25 230-25 270 0z" color="#000" enable-background="accumulate"/><path d="M-10-10v260h340V-10zm310 30c20 40 20 160 0 200-40 20-240 20-280 0C0 180 0 50 20 20 60 0 260 0 300 20z" color="#000" enable-background="accumulate" fill="#445"/></svg>