<!-- Created with Inkscape (http://www.inkscape.org/) -->
<svg xmlns:rdf="http://www.w3.org/1999/02/22-rdf-syntax-ns#" xmlns="http://www.w3.org/2000/svg" height="52" width="90" version="1.1" xmlns:cc="http://creativecommons.org/ns#" xmlns:dc="http://purl.org/dc/elements/1.1/">
	<metadata>
		<rdf:RDF>
			<cc:Work rdf:about="">
				<dc:format>image/svg+xml</dc:format>
				<dc:type rdf:resource="http://purl.org/dc/dcmitype/StillImage"/>
				<dc:title/>
			</cc:Work>
		</rdf:RDF>
	</metadata>
	<g transform="translate(0,-1000.3621)">
		<path style="enable-background:accumulate;color:#000000;" d="M-4-4v60h98v-60h-98zm69.7812,4.90625c1.536,0,2.8126,1.30775,2.8126,2.84375v3.0625h0.5624c3.904,0,3.904,5.625,0,5.625h-0.5624v5.625h1.625c3.776,0,3.7127,5.5937-0.0313,5.5937h-2.4687c-2.592,0-4.7188-2.0947-4.7188-4.7187v-15.1875c0-1.536,1.2772-2.84375,2.7812-2.84375zm10.9688,5.78125c1.568,0,2.8125,1.3071,2.8125,2.875v8.5h4.625v-8.5c0-1.5679,1.2445-2.875,2.8125-2.875s2.8125,1.3071,2.8125,2.875v6.5c-0.128,1.568-0.8145,2.4143-2.0625,3.4063l-4.125,3.4687c-1.632,1.376-1.8055,1.4385-3.4375,0.0625l-4.25-3.5312c-1.184-0.992-1.8705-1.8383-2.0625-3.4063v-6.5c0-1.5679,1.307-2.875,2.875-2.875zm-71.125,0.25c3.2,0,5.6875,2.492,5.6875,5.5v28.4375c5.632,0,4.057-0.125,9.625-0.125,7.36,0,7.36,11.25,0,11.25h-11.2188c-5.31199,0-9.71875-4.3442-9.71875-9.6562v-29.9063c-1.18424E-15-3.008,2.617-5.5,5.625-5.5zm31.9688,0.25h9.0937c2.624,0,4.8003,0.9595,6.6563,2.6875l5.5,5.375c1.856,1.856,2.9374,4.187,2.9374,6.875v14.9688c0,2.688-1.0814,4.9877-2.9374,6.8437l-5.5,5.375c-1.856,1.728-4.0323,2.6875-6.6563,2.6875h-18.5v-35.3125c0-5.184,4.1583-9.5,9.4063-9.5zm1.7812,11.0937v22.5313h11.2188v-22.4063l-11.2188-0.125z" fill-rule="nonzero" transform="translate(0,1000.3621)" fill="#445"/>
	</g>
</svg>
