<?xml version="1.0" encoding="UTF-8" standalone="no"?>
<!-- Created with Inkscape (http://www.inkscape.org/) -->

<svg
   xmlns:dc="http://purl.org/dc/elements/1.1/"
   xmlns:cc="http://creativecommons.org/ns#"
   xmlns:rdf="http://www.w3.org/1999/02/22-rdf-syntax-ns#"
   xmlns:svg="http://www.w3.org/2000/svg"
   xmlns="http://www.w3.org/2000/svg"
   xmlns:sodipodi="http://sodipodi.sourceforge.net/DTD/sodipodi-0.dtd"
   xmlns:inkscape="http://www.inkscape.org/namespaces/inkscape"
   height="52"
   width="256"
   version="1.1"
   id="svg3207"
   inkscape:version="0.48.4 r9939"
   sodipodi:docname="ldtv-inv.svg">
  <defs
     id="defs3217" />
  <sodipodi:namedview
     pagecolor="#ffffff"
     bordercolor="#666666"
     borderopacity="1"
     objecttolerance="10"
     gridtolerance="10"
     guidetolerance="10"
     inkscape:pageopacity="0"
     inkscape:pageshadow="2"
     inkscape:window-width="1201"
     inkscape:window-height="611"
     id="namedview3215"
     showgrid="false"
     inkscape:zoom="1.8833333"
     inkscape:cx="114.68071"
     inkscape:cy="27.516492"
     inkscape:window-x="59"
     inkscape:window-y="34"
     inkscape:window-maximized="0"
     inkscape:current-layer="svg3207" />
  <metadata
     id="metadata3209">
    <rdf:RDF>
      <cc:Work
         rdf:about="">
        <dc:format>image/svg+xml</dc:format>
        <dc:type
           rdf:resource="http://purl.org/dc/dcmitype/StillImage" />
        <dc:title></dc:title>
      </cc:Work>
    </rdf:RDF>
  </metadata>
  <g
     transform="translate(0,-1000.3621)"
     id="g3211">
    <path
       style="color:#000000;fill:#bbbbcc;fill-rule:nonzero;enable-background:accumulate"
       d="M -4 -4 L -4 56 L 258 56 L 258 -4 L -4 -4 z M 65.78125 0.90625 C 67.31725 0.90625 68.59375 2.214 68.59375 3.75 L 68.59375 6.8125 L 69.15625 6.8125 C 73.06025 6.8125 73.06025 12.4375 69.15625 12.4375 L 68.59375 12.4375 L 68.59375 18.0625 L 70.21875 18.0625 C 73.99475 18.0625 73.9315 23.65625 70.1875 23.65625 L 67.71875 23.65625 C 65.12675 23.65625 63 21.5615 63 18.9375 L 63 3.75 C 63 2.214 64.27725 0.90625 65.78125 0.90625 z M 76.75 6.6875 C 78.318 6.6875 79.5625 7.9946 79.5625 9.5625 L 79.5625 18.0625 L 84.1875 18.0625 L 84.1875 9.5625 C 84.1875 7.9946 85.432 6.6875 87 6.6875 C 88.568 6.6875 89.8125 7.9946 89.8125 9.5625 L 89.8125 16.0625 C 89.6845 17.6305 88.998 18.47675 87.75 19.46875 L 83.625 22.9375 C 81.993 24.3135 81.8195 24.376 80.1875 23 L 75.9375 19.46875 C 74.7535 18.47675 74.067 17.6305 73.875 16.0625 L 73.875 9.5625 C 73.875 7.9946 75.182 6.6875 76.75 6.6875 z M 138 6.8125 C 141.264 6.8125 143.625 9.4547533 143.625 12.71875 L 143.625 40.59375 L 153.9375 40.59375 L 153.9375 12.4375 C 153.9375 9.429503 156.4905 6.8125 159.5625 6.8125 C 162.6985 6.8125 165.28125 9.429503 165.28125 12.4375 L 165.28125 46.375 C 165.28125 49.510997 162.6985 52 159.5625 52 C 156.4905 52 153.9375 49.510997 153.9375 46.375 L 153.9375 44.4375 C 153.9375 44.0535 153.6905 44.0535 153.5625 44.4375 C 152.0265 49.365495 148.428 51.875 143.5 51.875 C 137.29201 51.875 132.375 47.774994 132.375 41.375 L 132.375 12.5625 C 132.375 9.4265031 134.736 6.8125 138 6.8125 z M 5.625 6.9375 C 8.825 6.9375 11.3125 9.4295 11.3125 12.4375 L 11.3125 40.875 C 16.9445 40.875 15.3695 40.75 20.9375 40.75 C 28.2975 40.75 28.2975 52 20.9375 52 L 9.71875 52 C 4.40676 52 2.3684758e-15 47.65575 0 42.34375 L 0 12.4375 C 0 9.4295 2.617 6.9375 5.625 6.9375 z M 107.46875 6.9375 L 123.03125 6.9375 C 126.10325 6.9375 128.65625 9.3655031 128.65625 12.4375 C 128.65625 15.509497 126.03925 18.15625 123.03125 18.15625 L 109.1875 18.15625 L 109.25 40.53125 L 118.6875 40.53125 L 118.6875 35.21875 C 115.5515 35.21875 112.78125 32.795247 112.78125 29.53125 C 112.78125 26.459253 115.39675 23.96875 118.46875 23.96875 L 124.625 23.96875 C 127.505 23.96875 129.8125 26.777753 129.8125 29.59375 L 129.8125 35.6875 C 129.8125 38.439497 128.92 41.958002 127 43.75 L 121.4375 49.125 C 119.5815 50.852998 117.27875 51.75 114.71875 51.75 L 107.53125 51.75 C 102.28326 51.75 98 47.465245 98 42.28125 L 98.0625 16.28125 C 98.0625 11.097255 102.22076 6.9375 107.46875 6.9375 z M 191.84375 6.9375 L 200.9375 6.9375 C 203.5615 6.9375 205.73775 7.8970017 207.59375 9.625 L 213.09375 15 C 214.94975 16.855998 216.03125 19.155753 216.03125 21.84375 L 216.03125 36.84375 C 216.03125 39.531747 214.94975 41.831502 213.09375 43.6875 L 207.59375 49.0625 C 205.73775 50.790498 203.5615 51.75 200.9375 51.75 L 182.4375 51.75 L 182.4375 16.40625 C 182.4375 11.222255 186.59576 6.9375 191.84375 6.9375 z M 227.90625 6.9375 L 243.34375 6.9375 C 246.41575 6.9375 248.90625 9.429503 248.90625 12.4375 C 248.90625 15.509497 246.35175 18.15625 243.34375 18.15625 L 229.75 18.15625 L 229.75 24.03125 L 242.25 24.03125 C 245.258 24.03125 247.8125 26.520253 247.8125 29.65625 C 247.8125 32.664247 245.258 35.21875 242.25 35.21875 L 229.75 35.21875 L 229.75 40.59375 L 243.34375 40.59375 C 246.41575 40.59375 248.90625 43.114003 248.90625 46.25 C 248.90625 49.257997 246.35175 51.6845 243.34375 51.8125 L 227.90625 51.8125 C 222.78626 51.8125 218.5625 47.527745 218.5625 42.34375 L 218.5625 38.875 C 218.5625 34.459004 219.197 30.634248 224.125 28.90625 C 219.517 27.306252 218.5625 23.853496 218.5625 19.4375 L 218.5625 16.40625 C 218.5625 11.158255 222.78626 6.9375 227.90625 6.9375 z M 174 7.15625 C 176.8 7.14825 179.59375 8.9465036 179.59375 12.5625 L 179.59375 46.75 C 179.59375 54.045993 168.375 53.981993 168.375 46.75 L 168.375 12.625 C 168.375 8.9770036 171.2 7.16425 174 7.15625 z M 37.59375 7.1875 L 46.6875 7.1875 C 49.3115 7.1875 51.48775 8.147 53.34375 9.875 L 58.84375 15.25 C 60.69975 17.106 61.78125 19.437 61.78125 22.125 L 61.78125 37.09375 C 61.78125 39.78175 60.69975 42.0815 58.84375 43.9375 L 53.34375 49.3125 C 51.48775 51.0405 49.3115 52 46.6875 52 L 28.1875 52 L 28.1875 16.6875 C 28.1875 11.5035 32.34575 7.1875 37.59375 7.1875 z M 193.625 18.03125 L 193.625 40.53125 L 204.84375 40.53125 L 204.84375 18.15625 L 193.625 18.03125 z M 39.375 18.28125 L 39.375 40.8125 L 50.59375 40.8125 L 50.59375 18.40625 L 39.375 18.28125 z "
       transform="translate(0,1000.3621)"
       id="path3213" />
  </g>
</svg>
