<?xml version="1.0" encoding="UTF-8" standalone="no"?>
<!-- Created with Inkscape (http://www.inkscape.org/) -->

<svg
   xmlns:dc="http://purl.org/dc/elements/1.1/"
   xmlns:cc="http://creativecommons.org/ns#"
   xmlns:rdf="http://www.w3.org/1999/02/22-rdf-syntax-ns#"
   xmlns:svg="http://www.w3.org/2000/svg"
   xmlns="http://www.w3.org/2000/svg"
   xmlns:sodipodi="http://sodipodi.sourceforge.net/DTD/sodipodi-0.dtd"
   xmlns:inkscape="http://www.inkscape.org/namespaces/inkscape"
   width="128"
   height="128"
   id="svg3506"
   version="1.1"
   inkscape:version="0.48.4 r9939"
   inkscape:export-filename="/home/mike/Work/LudumDare/compo/plugins/compo2/art/play-sm.png"
   inkscape:export-xdpi="90"
   inkscape:export-ydpi="90"
   sodipodi:docname="New document 10">
  <defs
     id="defs3508">
    <filter
       inkscape:collect="always"
       id="filter4315">
      <feGaussianBlur
         inkscape:collect="always"
         stdDeviation="2.5600008"
         id="feGaussianBlur4317" />
    </filter>
  </defs>
  <sodipodi:namedview
     id="base"
     pagecolor="#ffffff"
     bordercolor="#666666"
     borderopacity="1.0"
     inkscape:pageopacity="0.0"
     inkscape:pageshadow="2"
     inkscape:zoom="2"
     inkscape:cx="53"
     inkscape:cy="35.284116"
     inkscape:document-units="px"
     inkscape:current-layer="layer1"
     showgrid="false"
     inkscape:window-width="1317"
     inkscape:window-height="744"
     inkscape:window-x="49"
     inkscape:window-y="24"
     inkscape:window-maximized="1" />
  <metadata
     id="metadata3511">
    <rdf:RDF>
      <cc:Work
         rdf:about="">
        <dc:format>image/svg+xml</dc:format>
        <dc:type
           rdf:resource="http://purl.org/dc/dcmitype/StillImage" />
        <dc:title></dc:title>
      </cc:Work>
    </rdf:RDF>
  </metadata>
  <g
     inkscape:label="Layer 1"
     inkscape:groupmode="layer"
     id="layer1"
     transform="translate(0,-924.36218)">
    <path
       style="opacity:0.3;color:#000000;fill:#000000;fill-opacity:1;fill-rule:nonzero;stroke:none;stroke-width:4;marker:none;visibility:visible;display:inline;overflow:visible;filter:url(#filter4315);enable-background:accumulate"
       d="m 64,958.36216 c -17.6731,0 -32,14.32692 -32,32.00002 0,17.67312 14.3269,32.00002 32,32.00002 17.6732,0 32,-14.3269 32,-32.00002 0,-17.6731 -14.3268,-32.00002 -32,-32.00002 z m -10.1562,13.00002 c 0.5993,-0.031 1.2069,0.1241 1.7187,0.4375 l 26,16 c 0.8745,0.5327 1.4375,1.5384 1.4375,2.5625 0,1.024 -0.563,2.0297 -1.4375,2.5625 l -26,16.00002 c -0.9044,0.5513 -2.1075,0.5814 -3.0312,0.062 -0.9237,-0.5189 -1.5316,-1.5653 -1.5313,-2.625 l 0,-32.00002 c 0,-1.5202 1.326,-2.921 2.8438,-3 z"
       id="path2987-6"
       inkscape:connector-curvature="0" />
    <path
       style="color:#000000;fill:#ffffff;fill-opacity:1;fill-rule:nonzero;stroke:none;stroke-width:4;marker:none;visibility:visible;display:inline;overflow:visible;enable-background:accumulate"
       d="m 64,956.36216 c -17.6731,0 -32,14.32692 -32,32.00002 0,17.67312 14.3269,32.00002 32,32.00002 17.6732,0 32,-14.3269 32,-32.00002 0,-17.6731 -14.3268,-32.00002 -32,-32.00002 z m -10.1562,13.00002 c 0.5993,-0.031 1.2069,0.1241 1.7187,0.4375 l 26,16 c 0.8745,0.5327 1.4375,1.5384 1.4375,2.5625 0,1.024 -0.563,2.0297 -1.4375,2.5625 l -26,16.00002 c -0.9044,0.5513 -2.1075,0.5814 -3.0312,0.062 -0.9237,-0.5189 -1.5316,-1.5653 -1.5313,-2.625 l 0,-32.00002 c 0,-1.5202 1.326,-2.921 2.8438,-3 z"
       id="path2987-6-6"
       inkscape:connector-curvature="0" />
  </g>
</svg>
