<?xml version="1.0" encoding="UTF-8" standalone="no"?>
<!-- Created with Inkscape (http://www.inkscape.org/) -->

<svg
   xmlns:dc="http://purl.org/dc/elements/1.1/"
   xmlns:cc="http://creativecommons.org/ns#"
   xmlns:rdf="http://www.w3.org/1999/02/22-rdf-syntax-ns#"
   xmlns:svg="http://www.w3.org/2000/svg"
   xmlns="http://www.w3.org/2000/svg"
   xmlns:sodipodi="http://sodipodi.sourceforge.net/DTD/sodipodi-0.dtd"
   xmlns:inkscape="http://www.inkscape.org/namespaces/inkscape"
   width="128"
   height="128"
   id="svg3973"
   version="1.1"
   inkscape:version="0.48.4 r9939"
   sodipodi:docname="New document 8">
  <defs
     id="defs3975">
    <filter
       inkscape:collect="always"
       id="filter4514">
      <feGaussianBlur
         inkscape:collect="always"
         stdDeviation="2.56"
         id="feGaussianBlur4516" />
    </filter>
  </defs>
  <sodipodi:namedview
     id="base"
     pagecolor="#ffffff"
     bordercolor="#666666"
     borderopacity="1.0"
     inkscape:pageopacity="0.0"
     inkscape:pageshadow="2"
     inkscape:zoom="2.7747253"
     inkscape:cx="-1.3227742"
     inkscape:cy="37.186248"
     inkscape:current-layer="layer1"
     showgrid="true"
     inkscape:grid-bbox="true"
     inkscape:document-units="px"
     inkscape:window-width="1317"
     inkscape:window-height="744"
     inkscape:window-x="49"
     inkscape:window-y="24"
     inkscape:window-maximized="1" />
  <metadata
     id="metadata3978">
    <rdf:RDF>
      <cc:Work
         rdf:about="">
        <dc:format>image/svg+xml</dc:format>
        <dc:type
           rdf:resource="http://purl.org/dc/dcmitype/StillImage" />
        <dc:title></dc:title>
      </cc:Work>
    </rdf:RDF>
  </metadata>
  <g
     id="layer1"
     inkscape:label="Layer 1"
     inkscape:groupmode="layer"
     transform="translate(0,112)">
    <path
       inkscape:connector-curvature="0"
       style="opacity:0.3;color:#000000;fill:#000000;fill-opacity:1;fill-rule:nonzero;stroke:none;stroke-width:4;marker:none;visibility:visible;display:inline;overflow:visible;filter:url(#filter4514);enable-background:accumulate"
       d="M 64.000001,-78 C 46.326891,-78 32,-63.6731 32,-46 c 0,17.6731 14.326891,32 32.000001,32 17.67311,0 32,-14.3269 32,-32 0,-17.6731 -14.32689,-32 -32,-32 z m -0.28125,5.90625 a 4.567128,4.567128 0 0 1 0.3125,0 4.567128,4.567128 0 0 1 4.625,4.625 l 0,20.90625 a 4.567128,4.567128 0 1 1 -9.125,0 l 0,-20.90625 a 4.567128,4.567128 0 0 1 4.1875,-4.625 z M 75.875001,-68.5 a 4.5886799,4.5886799 0 0 1 2.5625,0.875 c 1.41749,0.94876 2.7367,2.01795 3.9375,3.21875 1.20087,1.2007 2.30089,2.5199 3.25,3.9375 0.94177,1.4066 1.74913,2.9153 2.40625,4.5 0.64594,1.5578 1.13399,3.1825 1.46875,4.875 0.32473,1.6422 0.5,3.36435 0.5,5.09375 0,1.7293 -0.1753,3.4205 -0.5,5.0625 -0.33472,1.6925 -0.82289,3.3173 -1.46875,4.875 -0.65696,1.5844 -1.46496,3.0937 -2.40625,4.5 -0.94868,1.4171 -2.04918,2.7366 -3.25,3.9375 -1.20098,1.2011 -2.52,2.26975 -3.9375,3.21875 -1.40681,0.9419 -2.88434,1.74915 -4.46875,2.40625 -1.55745,0.6458 -3.21329,1.1652 -4.90625,1.5 -1.64213,0.3247 -3.33315,0.5 -5.0625,0.5 -1.72907,0 -3.42002,-0.1751 -5.0625,-0.5 -1.69288,-0.3347 -3.31743,-0.8541 -4.875,-1.5 -1.58442,-0.6569 -3.09362,-1.46485 -4.5,-2.40625 -1.41732,-0.9488 -2.73679,-2.01825 -3.9375,-3.21875 -1.20087,-1.2008 -2.30089,-2.5198 -3.250001,-3.9375 -0.94172,-1.4066 -1.74914,-2.9153 -2.40625,-4.5 C 39.32279,-37.6202 38.83476,-39.2448 38.5,-40.9375 38.17524,-42.5796 38,-44.2706 38,-46 c 0,-1.7292 0.17526,-3.45165 0.5,-5.09375 0.33473,-1.6925 0.8229,-3.3173 1.46875,-4.875 0.65698,-1.5845 1.46487,-3.0937 2.40625,-4.5 0.948791,-1.4173 2.049291,-2.7368 3.250001,-3.9375 1.20107,-1.2014 2.52,-2.26976 3.9375,-3.21875 a 4.5886799,4.5886799 0 0 1 2.4375,-0.8125 4.5886799,4.5886799 0 0 1 2.65625,8.4375 c -0.91804,0.6146 -1.78345,1.31445 -2.5625,2.09375 -0.77903,0.779 -1.47934,1.6447 -2.09375,2.5625 -0.60962,0.9108 -1.13866,1.88395 -1.5625,2.90625 -0.41671,1.005 -0.72141,2.0323 -0.9375,3.125 -0.20964,1.0601 -0.3125,2.1827 -0.3125,3.3125 0,1.1298 0.10282,2.22105 0.3125,3.28125 0.21612,1.0928 0.52078,2.15135 0.9375,3.15625 0.42397,1.0225 0.95274,1.99545 1.5625,2.90625 0.61451,0.9179 1.3143,1.75185 2.09375,2.53125 0.77923,0.7791 1.64464,1.47925 2.5625,2.09375 0.91064,0.6095 1.88393,1.1387 2.90625,1.5625 1.00503,0.4168 2.06391,0.75285 3.15625,0.96875 1.0597,0.2097 2.15132,0.3125 3.28125,0.3125 1.12981,0 2.22106,-0.1028 3.28125,-0.3125 1.09246,-0.216 2.15096,-0.55185 3.15625,-0.96875 1.02277,-0.4241 1.99564,-0.9529 2.90625,-1.5625 0.91804,-0.6147 1.78336,-1.31445 2.5625,-2.09375 0.77892,-0.7789 1.47923,-1.61335 2.09375,-2.53125 0.60971,-0.911 1.13862,-1.88405 1.5625,-2.90625 0.41668,-1.0049 0.7214,-2.06345 0.9375,-3.15625 0.20966,-1.0602 0.3125,-2.15155 0.3125,-3.28125 0,-1.1298 -0.10279,-2.252 -0.3125,-3.3125 -0.21612,-1.0927 -0.52074,-2.1199 -0.9375,-3.125 -0.42396,-1.0225 -0.95281,-1.99555 -1.5625,-2.90625 -0.61451,-0.9179 -1.3143,-1.7831 -2.09375,-2.5625 -0.77914,-0.7791 -1.64481,-1.47955 -2.5625,-2.09375 a 4.5886799,4.5886799 0 0 1 2.53125,-8.5 z"
       id="path2987-8" />
    <path
       inkscape:connector-curvature="0"
       style="color:#000000;fill:#ffffff;fill-opacity:1;fill-rule:nonzero;stroke:none;stroke-width:4;marker:none;visibility:visible;display:inline;overflow:visible;enable-background:accumulate"
       d="M 64.000001,-80 C 46.326891,-80 32,-65.6731 32,-48 c 0,17.6731 14.326891,32 32.000001,32 17.67311,0 32,-14.3269 32,-32 0,-17.6731 -14.32689,-32 -32,-32 z m -0.28125,5.90625 a 4.567128,4.567128 0 0 1 0.3125,0 4.567128,4.567128 0 0 1 4.625,4.625 l 0,20.90625 a 4.567128,4.567128 0 1 1 -9.125,0 l 0,-20.90625 a 4.567128,4.567128 0 0 1 4.1875,-4.625 z M 75.875001,-70.5 a 4.5886799,4.5886799 0 0 1 2.5625,0.875 c 1.41749,0.94876 2.7367,2.01795 3.9375,3.21875 1.20087,1.2007 2.30089,2.5199 3.25,3.9375 0.94177,1.4066 1.74913,2.9153 2.40625,4.5 0.64594,1.5578 1.13399,3.1825 1.46875,4.875 0.32473,1.6422 0.5,3.36435 0.5,5.09375 0,1.7293 -0.1753,3.4205 -0.5,5.0625 -0.33472,1.6925 -0.82289,3.3173 -1.46875,4.875 -0.65696,1.5844 -1.46496,3.0937 -2.40625,4.5 -0.94868,1.4171 -2.04918,2.7366 -3.25,3.9375 -1.20098,1.2011 -2.52,2.26975 -3.9375,3.21875 -1.40681,0.9419 -2.88434,1.74915 -4.46875,2.40625 -1.55745,0.6458 -3.21329,1.1652 -4.90625,1.5 -1.64213,0.3247 -3.33315,0.5 -5.0625,0.5 -1.72907,0 -3.42002,-0.1751 -5.0625,-0.5 -1.69288,-0.3347 -3.31743,-0.8541 -4.875,-1.5 -1.58442,-0.6569 -3.09362,-1.46485 -4.5,-2.40625 -1.41732,-0.9488 -2.73679,-2.01825 -3.9375,-3.21875 -1.20087,-1.2008 -2.30089,-2.5198 -3.250001,-3.9375 -0.94172,-1.4066 -1.74914,-2.9153 -2.40625,-4.5 C 39.32279,-39.6202 38.83476,-41.2448 38.5,-42.9375 38.17524,-44.5796 38,-46.2706 38,-48 c 0,-1.7292 0.17526,-3.45165 0.5,-5.09375 0.33473,-1.6925 0.8229,-3.3173 1.46875,-4.875 0.65698,-1.5845 1.46487,-3.0937 2.40625,-4.5 0.948791,-1.4173 2.049291,-2.7368 3.250001,-3.9375 1.20107,-1.2014 2.52,-2.26976 3.9375,-3.21875 a 4.5886799,4.5886799 0 0 1 2.4375,-0.8125 4.5886799,4.5886799 0 0 1 2.65625,8.4375 c -0.91804,0.6146 -1.78345,1.31445 -2.5625,2.09375 -0.77903,0.779 -1.47934,1.6447 -2.09375,2.5625 -0.60962,0.9108 -1.13866,1.88395 -1.5625,2.90625 -0.41671,1.005 -0.72141,2.0323 -0.9375,3.125 -0.20964,1.0601 -0.3125,2.1827 -0.3125,3.3125 0,1.1298 0.10282,2.22105 0.3125,3.28125 0.21612,1.0928 0.52078,2.15135 0.9375,3.15625 0.42397,1.0225 0.95274,1.99545 1.5625,2.90625 0.61451,0.9179 1.3143,1.75185 2.09375,2.53125 0.77923,0.7791 1.64464,1.47925 2.5625,2.09375 0.91064,0.6095 1.88393,1.1387 2.90625,1.5625 1.00503,0.4168 2.06391,0.75285 3.15625,0.96875 1.0597,0.2097 2.15132,0.3125 3.28125,0.3125 1.12981,0 2.22106,-0.1028 3.28125,-0.3125 1.09246,-0.216 2.15096,-0.55185 3.15625,-0.96875 1.02277,-0.4241 1.99564,-0.9529 2.90625,-1.5625 0.91804,-0.6147 1.78336,-1.31445 2.5625,-2.09375 0.77892,-0.7789 1.47923,-1.61335 2.09375,-2.53125 0.60971,-0.911 1.13862,-1.88405 1.5625,-2.90625 0.41668,-1.0049 0.7214,-2.06345 0.9375,-3.15625 0.20966,-1.0602 0.3125,-2.15155 0.3125,-3.28125 0,-1.1298 -0.10279,-2.252 -0.3125,-3.3125 -0.21612,-1.0927 -0.52074,-2.1199 -0.9375,-3.125 -0.42396,-1.0225 -0.95281,-1.99555 -1.5625,-2.90625 -0.61451,-0.9179 -1.3143,-1.7831 -2.09375,-2.5625 -0.77914,-0.7791 -1.64481,-1.47955 -2.5625,-2.09375 a 4.5886799,4.5886799 0 0 1 2.53125,-8.5 z"
       id="path2987-8-2" />
  </g>
</svg>
