<!-- Created with Inkscape (http://www.inkscape.org/) -->
<svg xmlns:rdf="http://www.w3.org/1999/02/22-rdf-syntax-ns#" xmlns="http://www.w3.org/2000/svg" height="256" width="256" version="1.1" xmlns:cc="http://creativecommons.org/ns#" xmlns:dc="http://purl.org/dc/elements/1.1/">
	<metadata>
		<rdf:RDF>
			<cc:Work rdf:about="">
				<dc:format>image/svg+xml</dc:format>
				<dc:type rdf:resource="http://purl.org/dc/dcmitype/StillImage"/>
				<dc:title/>
			</cc:Work>
		</rdf:RDF>
	</metadata>
	<g fill-rule="nonzero" transform="translate(0,-796.36218)" fill="currentColor">
		<path d="M152,4c-11.08,0-20,8.92-20,20v16c0,11.08,8.92,20,20,20h16c11.08,0,20-8.92,20-20v-16c0-11.08-8.92-20-20-20h-16zm-4,12h24c2.216,0,4,1.784,4,4v24c0,2.216-1.784,4-4,4h-24c-2.216,0-4-1.784-4-4v-24c0-2.216,1.784-4,4-4zm4,8c-2.216,0-4,1.784-4,4v12c0,2.216,1.784,4,4,4h16c2.216,0,4-1.784,4-4v-12c0-2.216-1.784-4-4-4h-16z" transform="translate(0,796.36218)"/>
		<path d="M216,4c-11.08,0-20,8.92-20,20v16c0,11.08,8.92,20,20,20h16c11.08,0,20-8.92,20-20v-16c0-11.08-8.92-20-20-20h-16zm-4,20h24c2.216,0,4,1.784,4,4v4c0,2.216-1.784,4-4,4h-24c-2.216,0-4-1.784-4-4v-4c0-2.216,1.784-4,4-4z" transform="translate(0,796.36218)"/>
		<path d="m83.7812,14c0.593576-0.05771,1.20846,0.16696,1.625,0.59375l10.5938,10.5937,10.594-10.5937c0.73936-0.73095,2.07314-0.73095,2.8125,0l4,4c0.73095,0.73936,0.73095,2.07314,0,2.8125l-10.594,10.5937,10.594,10.5938c0.73095,0.73936,0.73095,2.07314,0,2.8125l-4,4c-0.73936,0.73095-2.07314,0.73095-2.8125,0l-10.594-10.5938-10.5938,10.5937c-0.739355,0.73095-2.07314,0.73095-2.8125,0l-4-4c-0.730954-0.73936-0.730954-2.07314,0-2.8125l10.5938-10.5937-10.5937-10.5938c-0.730954-0.73936-0.730954-2.07314,0-2.8125l4-4c0.3136-0.3242,0.7399-0.5373,1.1874-0.5937z" transform="translate(0,796.36218)"/>
		<path d="m24,864.362c-11.08,0-20,8.92-20,20v16c0,11.08,8.92,20,20,20h16c11.08,0,20-8.92,20-20v-16c0-11.08-8.92-20-20-20zm5.8125,10c0.06245-0.003,0.12505-0.003,0.1875,0h4c1.04716,0.0001,1.99989,0.95283,2,2v12h12c1.04716,0.0001,1.99989,0.95283,2,2v4c-0.00011,1.04717-0.95284,1.9999-2,2h-12v12c-0.000106,1.04717-0.952836,1.9999-2,2h-4c-1.04717-0.0001-1.9999-0.95283-2-2v-12h-12c-1.04717-0.0001-1.9999-0.95283-2-2v-4c0.000105-1.04717,0.952831-1.9999,2-2h12v-12c-0.0043-0.98752,0.829332-1.9073,1.8125-2z"/>
		<path d="m93.8125,874.362c0.06245-0.003,0.12505-0.003,0.1875,0h4c1.04716,0.0001,1.99989,0.95283,2,2v12h12c1.04716,0.0001,1.99989,0.95283,2,2v4c-0.00011,1.04717-0.95284,1.9999-2,2h-12v12c-0.000106,1.04717-0.952836,1.9999-2,2h-4c-1.04717-0.0001-1.9999-0.95283-2-2v-12h-12c-1.04717-0.0001-1.9999-0.95283-2-2v-4c0.000105-1.04717,0.952831-1.9999,2-2h12v-12c-0.0043-0.98752,0.829332-1.9073,1.8125-2z"/>
		<path d="m24,800.362c-11.08,0-20,8.92-20,20v16c0,11.08,8.92,20,20,20h16c11.08,0,20-8.92,20-20v-16c0-11.08-8.92-20-20-20h-16zm-4.21875,10c0.593576-0.0577,1.20846,0.16696,1.625,0.59375l10.5938,10.594,10.5938-10.594c0.73936-0.73095,2.07314-0.73095,2.8125,0l4,4c0.73095,0.73936,0.73095,2.07314,0,2.8125l-10.5938,10.5938,10.5938,10.5938c0.73095,0.73936,0.73095,2.07314,0,2.8125l-4,4c-0.73936,0.73095-2.07314,0.73095-2.8125,0l-10.5938-10.593-10.5938,10.593c-0.739355,0.73095-2.07314,0.73095-2.8125,0l-4-4c-0.730954-0.73936-0.730954-2.07314,0-2.8125l10.5938-10.594-10.5937-10.594c-0.730954-0.73936-0.730954-2.07314,0-2.8125l4-4c0.313661-0.32422,0.739929-0.53735,1.1875-0.59375z"/>
		<path d="m24,132c-11.08,0-20,8.92-20,20v16c0,11.08,8.92,20,20,20h16c11.08,0,20-8.92,20-20v-16c0-11.08-8.92-20-20-20zm7.78125,6c0.588854-0.0657,1.20277,0.14682,1.625,0.5625l20,20c0.749546,0.7416,0.749546,2.10215,0,2.84375l-20,20c-0.555324,0.54891-1.43451,0.73547-2.15625,0.4375-0.7217-0.298-1.2436-1.063-1.25-1.844v-10h-14c-1.04717-0.0001-1.9999-0.95283-2-2v-16c0.000105-1.04717,0.952831-1.9999,2-2h14v-10c-0.0058-0.97811,0.809003-1.89295,1.78125-2z" transform="translate(0,796.36218)"/>
		<path d="m95.7812,934.362c0.588854-0.0657,1.20277,0.14682,1.625,0.5625l20,20c0.74955,0.7416,0.74955,2.10215,0,2.84375l-20,20c-0.555324,0.54891-1.43451,0.73547-2.15625,0.4375-0.721737-0.29796-1.2436-1.06295-1.25-1.84375v-10h-14c-1.04717-0.0001-1.9999-0.95283-2-2v-16c0.000105-1.04717,0.952831-1.9999,2-2h14v-10c-0.0058-0.97811,0.809003-1.89295,1.78125-2z"/>
		<path d="m40,992.362c11.08,0,20,8.92002,20,20v16c0,11.08-8.92,20-20,20h-16c-11.08,0-20-8.92-20-20v-16c0-11.08,8.92-20,20-20zm-7.78125,6c-0.588854-0.0657-1.20277,0.14682-1.625,0.5625l-20,20c-0.749546,0.7416-0.749546,2.1021,0,2.8437l20,20c0.555324,0.5489,1.43451,0.7355,2.15625,0.4375,0.721737-0.2979,1.2436-1.0629,1.25-1.8437v-10h14c1.04717-0.0001,1.9999-0.9528,2-2v-16c-0.000105-1.0472-0.952831-1.9999-2-2h-14v-10c0.0058-0.97813-0.809003-1.89297-1.78125-2.00002z"/>
		<path d="m96.1872,998.362c-0.588851-0.0657-1.20277,0.14682-1.625,0.5625l-20,20c-0.74955,0.7416-0.74955,2.1021,0,2.8437l20,20c0.555324,0.5489,1.43451,0.7355,2.15625,0.4375,0.72174-0.2979,1.2436-1.0629,1.25-1.8437v-10h14c1.04717-0.0001,1.9999-0.9528,2-2v-16c-0.0001-1.0472-0.95283-1.9999-2-2h-14v-10c0.006-0.97813-0.809-1.89297-1.78125-2.00002z"/>
		<path d="M152,132c-11.08,0-20,8.92-20,20v16c0,11.08,8.92,20,20,20h16c11.08,0,20-8.92,20-20v-16c0-11.08-8.92-20-20-20h-16zm3.781,8c0.589-0.066,1.203,0.147,1.625,0.562l14.594,14.594v-13.156c-0.004-0.988,0.829-1.907,1.812-2,0.063-0.003,0.126-0.003,0.188,0h4c1.047,0,2,0.953,2,2v36c0,1.047-0.953,2-2,2h-4c-1.047,0-2-0.953-2-2v-13.188l-14.594,14.594c-0.555,0.549-1.434,0.736-2.156,0.438s-1.244-1.063-1.25-1.844v-8h-12c-1.047,0-2-0.953-2-2v-16c0-1.047,0.953-2,2-2h12v-8c-0.006-0.978,0.809-1.893,1.781-2z" transform="translate(0,796.36218)"/>
		<path d="m219.781,936.362c0.58885-0.0657,1.20277,0.14682,1.625,0.5625l14.594,14.594v-13.1562c-0.004-0.98752,0.82933-1.9073,1.8125-2,0.0625-0.003,0.125-0.003,0.1875,0h4c1.04717,0.0001,1.9999,0.95283,2,2v36c-0.0001,1.04717-0.95283,1.9999-2,2h-4c-1.04717-0.0001-1.9999-0.95283-2-2v-13.1875l-14.5938,14.5938c-0.55532,0.54891-1.43451,0.73547-2.15625,0.4375-0.72174-0.29796-1.2436-1.06295-1.25-1.84375v-8h-12c-1.04717-0.0001-1.99989-0.95283-2-2v-16c0.00011-1.04717,0.95283-1.9999,2-2h12v-8c-0.006-0.97811,0.809-1.89295,1.78125-2z"/>
		<path d="m168,992.362c11.08,0,20,8.92002,20,20v16c0,11.08-8.92,20-20,20h-16c-11.08,0-20-8.92-20-20v-16c0-11.08,8.92-20,20-20h16zm-3.78125,8.00002c-0.58885-0.066-1.20277,0.1468-1.625,0.5625l-14.594,14.6v-13.1562c0.004-0.9875-0.82933-1.9073-1.8125-2h-0.1875-4c-1.04717,0.0001-1.9999,0.9528-2,2v36c0.0001,1.0472,0.95283,1.9999,2,2h4c1.04717-0.0001,1.9999-0.9528,2-2v-13.1875l14.5938,14.5937c0.55532,0.5489,1.43451,0.7355,2.15625,0.4375,0.72174-0.2979,1.2436-1.0629,1.25-1.8437v-8h12c1.04717-0.0001,1.99989-0.9528,2-2v-16c-0.00011-1.0472-0.95283-1.9999-2-2h-12v-8c0.006-0.9781-0.809-1.893-1.78125-2z"/>
		<path d="m228.219,1000.36c-0.58885-0.066-1.20277,0.1468-1.625,0.5625l-14.594,14.6v-13.1562c0.004-0.9875-0.82933-1.9073-1.8125-2h-0.1875-4c-1.04717,0.0001-1.9999,0.9528-2,2v36c0.0001,1.0472,0.95283,1.9999,2,2h4c1.04717-0.0001,1.9999-0.9528,2-2v-13.1875l14.5938,14.5937c0.55532,0.5489,1.43451,0.7355,2.15625,0.4375,0.72174-0.2979,1.2436-1.0629,1.25-1.8437v-8h12c1.04717-0.0001,1.99989-0.9528,2-2v-16c-0.00011-1.0472-0.95283-1.9999-2-2h-12v-8c0.006-0.9781-0.809-1.893-1.78125-2z"/>
	</g>
</svg>
