<?xml version="1.0" encoding="utf-8"?>
<!-- Generator: Adobe Illustrator 12.0.0, SVG Export Plug-In . SVG Version: 6.00 Build 51448)  -->
<!DOCTYPE svg PUBLIC "-//W3C//DTD SVG 1.1//EN" "http://www.w3.org/Graphics/SVG/1.1/DTD/svg11.dtd" [
	<!ENTITY ns_svg "http://www.w3.org/2000/svg">
	<!ENTITY ns_xlink "http://www.w3.org/1999/xlink">
]>
<svg  version="1.1" id="Layer_1" xmlns="&ns_svg;" xmlns:xlink="&ns_xlink;" width="792" height="262.493"
	 viewBox="0 0 792 262.493" overflow="visible" enable-background="new 0 0 792 262.493" xml:space="preserve">
<polygon fill-rule="evenodd" clip-rule="evenodd" fill="#FFFFFF" points="111.38,108.835 71.041,108.835 71.041,153.657 
	111.38,153.657 111.38,202.964 53.112,202.964 21.736,171.587 21.736,19.191 71.041,19.191 71.041,59.529 111.38,59.529 "/>
<polygon fill-rule="evenodd" clip-rule="evenodd" fill="#FFFFFF" points="313.081,171.587 281.704,202.964 129.31,202.964 
	129.31,59.529 178.614,59.529 178.614,153.657 196.543,153.657 196.543,59.529 245.847,59.529 245.847,153.657 263.775,153.657 
	263.775,59.529 313.081,59.529 "/>
<rect x="331.006" y="59.529" fill-rule="evenodd" clip-rule="evenodd" fill="#FFFFFF" width="49.305" height="143.435"/>
<rect x="331.006" y="19.192" fill-rule="evenodd" clip-rule="evenodd" fill="#FFFFFF" width="49.305" height="22.414"/>
<polygon fill-rule="evenodd" clip-rule="evenodd" fill="#FFFFFF" points="487.883,108.835 447.545,108.835 447.545,153.657 
	487.883,153.657 487.883,202.964 429.617,202.964 398.24,171.587 398.24,19.191 447.545,19.191 447.545,59.529 487.883,59.529 "/>
<polygon fill-rule="evenodd" clip-rule="evenodd" fill="#FFFFFF" points="613.385,108.835 555.117,108.835 555.117,153.657 
	613.385,153.657 613.385,202.964 537.188,202.964 505.811,171.587 505.811,90.906 537.188,59.529 613.385,59.529 "/>
<polygon fill-rule="evenodd" clip-rule="evenodd" fill="#FFFFFF" points="770.262,202.964 720.958,202.964 720.958,108.836 
	680.617,108.836 680.617,202.964 631.312,202.964 631.312,19.192 680.617,19.192 680.617,59.529 738.886,59.529 770.262,90.906 "/>
<polygon points="615.497,0 574.768,40.735 529.507,40.735 506.877,63.362 506.877,40.735 466.147,40.735 466.147,0 312.275,0 
	312.275,40.735 126.72,40.735 85.986,0 0,0 0,181.031 40.732,221.76 108.616,262.493 167.452,262.493 167.452,253.44 
	190.081,262.493 299.753,262.493 319.189,239.864 321.734,262.493 393.536,262.493 394.992,239.864 420.892,262.493 484.25,262.493 
	488.776,239.864 511.406,262.493 583.818,262.493 606.445,239.864 606.445,262.493 647.177,262.493 678.86,239.864 678.86,262.493 
	724.114,262.493 792,217.234 792,81.463 751.268,40.735 701.486,40.735 701.486,0 "/>
<polygon fill-rule="evenodd" clip-rule="evenodd" fill="#FFFFFF" points="108.616,108.618 67.885,108.618 67.885,153.875 
	108.616,153.875 108.616,203.659 49.782,203.659 18.102,171.979 18.102,18.104 67.885,18.104 67.885,58.833 108.616,58.833 "/>
<polygon fill-rule="evenodd" clip-rule="evenodd" fill="#FFFFFF" points="312.275,171.979 280.593,203.66 126.72,203.66 
	126.72,58.833 176.502,58.833 176.502,153.875 194.607,153.875 194.607,58.833 244.388,58.833 244.388,153.875 262.491,153.875 
	262.491,58.833 312.275,58.833 "/>
<rect x="330.375" y="58.832" fill-rule="evenodd" clip-rule="evenodd" fill="#FFFFFF" width="49.784" height="144.828"/>
<rect x="330.375" y="18.103" fill-rule="evenodd" clip-rule="evenodd" fill="#FFFFFF" width="49.784" height="22.632"/>
<polygon fill-rule="evenodd" clip-rule="evenodd" fill="#FFFFFF" points="488.776,108.618 448.047,108.618 448.047,153.875 
	488.776,153.875 488.776,203.659 429.943,203.659 398.261,171.979 398.261,18.104 448.047,18.104 448.047,58.833 488.776,58.833 "/>
<polygon fill-rule="evenodd" clip-rule="evenodd" fill="#FFFFFF" points="615.497,108.618 556.664,108.618 556.664,153.875 
	615.497,153.875 615.497,203.659 538.558,203.659 506.877,171.979 506.877,90.515 538.558,58.833 615.497,58.833 "/>
<polygon fill-rule="evenodd" clip-rule="evenodd" fill="#FFFFFF" points="773.898,203.66 724.115,203.66 724.115,108.618 
	683.382,108.618 683.382,203.66 633.598,203.66 633.598,18.103 683.382,18.103 683.382,58.832 742.217,58.832 773.898,90.514 "/>
</svg>
